<svg xmlns="http://www.w3.org/2000/svg" width="141.202" height="141.209" viewBox="0 0 141.202 141.209"><g transform="translate(-331.113 -424.843)"><path d="M568.786,429.363a65.046,65.046,0,0,0-105-9.7l-4.186-3.658A70.594,70.594,0,0,1,573.57,426.531Z" transform="translate(-111.062 33.012)" fill="#010d26"/><path d="M571.406,501.782l-4.613-3.1a65.078,65.078,0,0,0,1.994-69.316l4.784-2.832a70.637,70.637,0,0,1-2.164,75.25Z" transform="translate(-111.062 33.012)" fill="#ffc314"/><path d="M460.176,509.527a70.589,70.589,0,0,1-.579-93.521l4.186,3.658a65.031,65.031,0,0,0,.534,86.154Z" transform="translate(-111.062 33.012)" fill="#ffc314"/><path d="M512.776,533.04a70.709,70.709,0,0,1-52.6-23.514l4.141-3.709a65.043,65.043,0,0,0,102.476-7.138l4.613,3.1A70.554,70.554,0,0,1,512.776,533.04Z" transform="translate(-111.062 33.012)" fill="#010d26"/></g></svg>