<svg xmlns="http://www.w3.org/2000/svg" width="296.645" height="150.461" viewBox="0 0 296.645 150.461"><g transform="translate(-397 -15.037)"><rect width="40.776" height="4.85" transform="translate(430.07 67.363)" fill="#6c63ff"/><rect width="40.776" height="4.85" transform="translate(397 87.425)" fill="#6c63ff"/><rect width="20.521" height="4.85" transform="translate(472.711 123.787)" fill="#3f3d56"/><rect width="20.521" height="4.85" transform="translate(543.335 123.787)" fill="#01a0e2"/><rect width="20.521" height="4.85" transform="translate(580.38 123.787)" fill="#3f3d56"/><rect width="20.521" height="4.85" transform="translate(561.724 160.648)" fill="#3f3d56"/><rect width="20.521" height="4.85" transform="translate(635.813 160.648)" fill="#d94863"/><rect width="20.521" height="4.85" transform="translate(617.424 123.787)" fill="#83b33b"/><rect width="20.521" height="4.85" transform="translate(654.468 123.787)" fill="#3f3d56"/><path d="M738.781,224.133H495.194V203.277h.533v20.532H738.781Z" transform="translate(-45.136 -126.537)" fill="#ffc314"/><path d="M776.179,303.961H618.589V266.594h.533v37.043H776.179Z" transform="translate(-101.856 -169.099)" fill="#ffc314"/><rect width="0.533" height="20.835" transform="translate(482.705 97.515)" fill="#ffc314"/><rect width="0.533" height="20.835" transform="translate(553.329 97.515)" fill="#ffc314"/><rect width="0.533" height="20.835" transform="translate(590.374 97.515)" fill="#ffc314"/><path d="M0,0H.533V20.835H0Z" transform="translate(627.418 97.515)" fill="#ffc314"/><rect width="0.533" height="20.835" transform="translate(664.463 97.515)" fill="#ffc314"/><rect width="0.533" height="20.835" transform="translate(571.719 134.7)" fill="#ffc314"/><rect width="0.533" height="20.835" transform="translate(645.807 134.7)" fill="#ffc314"/><rect width="40.776" height="4.85" transform="translate(430.07 108.322)" fill="#6c63ff"/><rect width="20.521" height="4.85" transform="translate(472.711 51.899)" fill="#ffc314"/><rect width="20.521" height="4.85" transform="translate(543.335 51.899)" fill="#d94863"/><rect width="20.521" height="4.85" transform="translate(580.38 51.899)" fill="#83b33b"/><rect width="20.521" height="4.85" transform="translate(561.724 15.037)" fill="#3f3d56"/><rect width="20.521" height="4.85" transform="translate(635.813 15.037)" fill="#01a0e2"/><rect width="20.521" height="4.85" transform="translate(617.424 51.899)" fill="#3f3d56"/><rect width="20.521" height="4.85" transform="translate(654.468 51.899)" fill="#83b33b"/><path d="M738.781,222.191H495.194v20.856h.533V222.515H738.781Z" transform="translate(-45.136 -139.251)" fill="#ffc314"/><path d="M776.179,108.5H618.589V145.87h.533V108.827H776.179Z" transform="translate(-101.856 -62.829)" fill="#ffc314"/><rect width="0.533" height="20.835" transform="translate(482.705 62.185)" fill="#ffc314"/><rect width="0.533" height="20.835" transform="translate(553.329 62.185)" fill="#ffc314"/><rect width="0.533" height="20.835" transform="translate(590.374 62.185)" fill="#ffc314"/><rect width="0.533" height="20.835" transform="translate(627.418 62.185)" fill="#ffc314"/><rect width="0.533" height="20.835" transform="translate(664.463 62.185)" fill="#ffc314"/><rect width="0.533" height="20.835" transform="translate(571.719 25.001)" fill="#ffc314"/><rect width="0.533" height="20.835" transform="translate(645.807 25.001)" fill="#ffc314"/></g></svg>