<svg xmlns="http://www.w3.org/2000/svg" width="133.049" height="172.946" viewBox="0 0 133.049 172.946"><path d="M644.574,306.59H634.58V287.177c0-21.906-17.465-40.116-39.371-40.448a40.035,40.035,0,0,0-40.455,39.909V306.59h-9.972a16.684,16.684,0,0,0-16.632,16.632v79.819a16.684,16.684,0,0,0,16.632,16.632h99.792A16.676,16.676,0,0,0,661.2,403.041V323.222a16.676,16.676,0,0,0-16.625-16.632ZM600.5,358.477v28.588a5.967,5.967,0,0,1-5.532,5.989,5.834,5.834,0,0,1-6.107-5.827V358.462a13.276,13.276,0,1,1,11.639,0Zm22.451-51.887H566.393V286.639a28.271,28.271,0,1,1,56.541,0Z" transform="translate(-528.15 -246.727)" fill="#83b33b"/></svg>